<?xml version="1.0" encoding="UTF-8"?>
<svg version="1.1" xmlns="http://www.w3.org/2000/svg" width="128" height="128">
<path d="M0 0 C3.33600367 2.05838525 4.8262176 3.7393264 7 7 C7.40605469 6.525625 7.81210937 6.05125 8.23046875 5.5625 C10.88130883 3.22180236 13.26473284 3.09058998 16.70703125 2.79296875 C20.69372652 3.1529259 22.32576996 5.12520271 25 8 C26.5547669 11.10953379 26.28644437 13.56266761 26 17 C22.615953 23.2476509 17.3375079 27.95039779 12.34375 32.921875 C11.39468685 33.87228746 10.4459206 34.82299646 9.49743652 35.77398682 C7.51698451 37.7573747 5.53299264 39.7371321 3.54638672 41.71435547 C1.00424754 44.24506976 -1.52876434 46.78470039 -4.05921173 49.32709885 C-6.0132961 51.2884168 -7.97212696 53.24493838 -9.93241882 55.20005035 C-11.32210598 56.58776175 -12.70777868 57.97948958 -14.09338379 59.37127686 C-14.94106323 60.21265198 -15.78874268 61.0540271 -16.66210938 61.92089844 C-17.40505249 62.66225037 -18.14799561 63.40360229 -18.91345215 64.16741943 C-22.04920007 66.92149512 -24.23036056 67.90023192 -28.375 68.4375 C-33.1853299 67.85694294 -34.61392593 66.38607407 -38 63 C-39.2238892 60.55222161 -39.016364 59.26609459 -38.75 56.5625 C-38.68296875 55.78003906 -38.6159375 54.99757812 -38.546875 54.19140625 C-37.91025468 51.64037768 -36.99028875 50.66392419 -35 49 C-35.969375 48.21625 -36.93875 47.4325 -37.9375 46.625 C-40.41260563 44.62385077 -41.75413668 43.34666047 -42.34375 40.1171875 C-42.57398793 36.81327319 -42.6839319 34.06643307 -40.8527832 31.21118164 C-40.31999756 30.63746826 -39.78721191 30.06375488 -39.23828125 29.47265625 C-38.60293457 28.78558594 -37.96758789 28.09851563 -37.31298828 27.390625 C-33.02155334 22.9551457 -28.70052113 18.55305142 -24.32788086 14.19750977 C-22.66987045 12.54492818 -21.01736024 10.88697801 -19.36523438 9.22851562 C-18.31021689 8.17415781 -17.25488986 7.12010962 -16.19921875 6.06640625 C-15.70653 5.57169327 -15.21384125 5.07698029 -14.70622253 4.567276 C-9.98123151 -0.12517798 -6.56888051 -0.84099854 0 0 Z " fill="#5893FF" transform="translate(42,0)"/>
<path d="M0 0 C2.97239241 1.78476241 5.42604027 3.85208055 7 7 C6.984375 9.05859375 6.984375 9.05859375 6.75 11.4375 C6.68296875 12.21996094 6.6159375 13.00242187 6.546875 13.80859375 C5.91025468 16.35962232 4.99028875 17.33607581 3 19 C3.969375 19.78375 4.93875 20.5675 5.9375 21.375 C8.41260563 23.37614923 9.75413668 24.65333953 10.34375 27.8828125 C10.57398793 31.18672681 10.6839319 33.93356693 8.8527832 36.78881836 C8.31999756 37.36253174 7.78721191 37.93624512 7.23828125 38.52734375 C6.60293457 39.21441406 5.96758789 39.90148437 5.31298828 40.609375 C1.02155334 45.0448543 -3.29947887 49.44694858 -7.67211914 53.80249023 C-9.33012955 55.45507182 -10.98263976 57.11302199 -12.63476562 58.77148438 C-13.68978311 59.82584219 -14.74511014 60.87989038 -15.80078125 61.93359375 C-16.29347 62.42830673 -16.78615875 62.92301971 -17.29377747 63.432724 C-20.6979359 66.81344086 -22.52513059 68.15962602 -27.3125 68.3125 C-30.77894763 68.2790616 -31.8802113 68.07391218 -34.9375 66.1875 C-37 64 -37 64 -39 61 C-39.33 61.474375 -39.66 61.94875 -40 62.4375 C-43.02046658 64.79723951 -46.26987506 65.12409418 -50 65 C-53.66811631 63.45123978 -56.13280222 61.53784843 -58 58 C-58.60111861 53.36279933 -58.15184832 50.63376311 -55.47021484 46.82116699 C-52.07843501 42.61974193 -48.16578222 38.88310443 -44.34375 35.078125 C-43.39468685 34.12771254 -42.4459206 33.17700354 -41.49743652 32.22601318 C-39.51698451 30.2426253 -37.53299264 28.2628679 -35.54638672 26.28564453 C-33.00424754 23.75493024 -30.47123566 21.21529961 -27.94078827 18.67290115 C-25.9867039 16.7115832 -24.02787304 14.75506162 -22.06758118 12.79994965 C-20.67789402 11.41223825 -19.29222132 10.02051042 -17.90661621 8.62872314 C-16.63509705 7.36666046 -16.63509705 7.36666046 -15.33789062 6.07910156 C-14.59494751 5.33774963 -13.85200439 4.59639771 -13.08654785 3.83258057 C-8.89422638 0.15053376 -5.59468698 -0.67522084 0 0 Z " fill="#5874FF" transform="translate(118,60)"/>
<path d="M0 0 C3.09179136 1.3761536 5.19638753 2.95158445 7.57519531 5.34814453 C8.25559875 6.02869904 8.9360022 6.70925354 9.63702393 7.41043091 C10.36008728 8.14381683 11.08315063 8.87720276 11.828125 9.6328125 C12.57713074 10.38464813 13.32613647 11.13648376 14.09783936 11.91110229 C16.4866302 14.31107901 18.86836897 16.71792009 21.25 19.125 C22.86933169 20.75436352 24.48911802 22.38327534 26.109375 24.01171875 C30.07820505 28.00258806 34.04126899 31.99911415 38 36 C36.65272739 38.79570164 35.40293767 40.83967803 33.1796875 43.015625 C32.64472656 43.54414062 32.10976562 44.07265625 31.55859375 44.6171875 C31.00300781 45.15601563 30.44742188 45.69484375 29.875 46.25 C29.31167969 46.80429688 28.74835938 47.35859375 28.16796875 47.9296875 C26.78313972 49.29104485 25.39216796 50.64614859 24 52 C20.90820864 50.6238464 18.80361247 49.04841555 16.42480469 46.65185547 C15.74440125 45.97130096 15.0639978 45.29074646 14.36297607 44.58956909 C13.63991272 43.85618317 12.91684937 43.12279724 12.171875 42.3671875 C11.42286926 41.61535187 10.67386353 40.86351624 9.90216064 40.08889771 C7.5133698 37.68892099 5.13163103 35.28207991 2.75 32.875 C1.13066831 31.24563648 -0.48911802 29.61672466 -2.109375 27.98828125 C-6.07820505 23.99741194 -10.04126899 20.00088585 -14 16 C-12.65272739 13.20429836 -11.40293767 11.16032197 -9.1796875 8.984375 C-8.64472656 8.45585938 -8.10976563 7.92734375 -7.55859375 7.3828125 C-7.00300781 6.84398437 -6.44742188 6.30515625 -5.875 5.75 C-5.31167969 5.19570313 -4.74835937 4.64140625 -4.16796875 4.0703125 C-2.78313972 2.70895515 -1.39216796 1.35385141 0 0 Z " fill="#5785FF" transform="translate(52,38)"/>
</svg>
